Coordinates
version=1
nRows=29
nColumns=20
inDegrees=yes

Units are S.I. units (second, meters, Newtons, ...)
Angles are in degrees.

endheader
time	pelvis_tilt	pelvis_list	pelvis_rotation	pelvis_tx	pelvis_ty	pelvis_tz	hip_flexion_r	hip_adduction_r	hip_rotation_r	knee_angle_r	ankle_angle_r	hip_flexion_l	hip_adduction_l	hip_rotation_l	knee_angle_l	ankle_angle_l	lumbar_extension	lumbar_bending	lumbar_rotation
      0.00000000	     -3.32849272	     -3.86904987	     -0.81942391	     -1.95822971	      0.86463539	     -0.32216654	    -12.21590582	      4.24441461	    -11.22907749	      3.83958395	     11.65037360	     33.66856555	     -4.57472443	     -1.85432917	    -31.36075804	     11.71272115	     -3.56023806	      6.83005260	      4.30937231
      0.01000000	     -2.95631433	     -3.89824212	     -1.91360597	     -1.94609413	      0.86251677	     -0.32041597	    -13.54747634	      4.11290055	    -10.45788412	      4.05432219	     11.97399430	     33.38634973	     -5.32984294	     -3.04984827	    -28.10229827	     11.88104817	     -4.38952556	      6.40135314	      5.23344895
      0.02000000	     -2.58023737	     -3.99504516	     -3.00381312	     -1.93355887	      0.86041932	     -0.31871634	    -14.86912222	      3.99705446	     -9.71662252	      4.17848213	     12.31189142	     32.97810884	     -6.10242801	     -4.14875915	    -25.21978581	     11.87677628	     -5.13986991	      6.01038833	      6.14481368
      0.03000000	     -2.22522960	     -4.14500238	     -4.05389923	     -1.92066782	      0.85834132	     -0.31710781	    -16.16117054	      3.89292758	     -9.01858753	      4.22885301	     12.63159642	     32.52690101	     -6.86769823	     -5.14021556	    -22.81178514	     11.79732017	     -5.78709843	      5.64837855	      7.00302598
      0.04000000	     -1.90483449	     -4.31300288	     -5.04457800	     -1.90746677	      0.85631421	     -0.31561359	    -17.39897794	      3.77249111	     -8.38467200	      4.19456556	     12.92844295	     32.08231645	     -7.59436687	     -6.05476931	    -20.93761444	     11.68509525	     -6.32315929	      5.28228181	      7.78569259
      0.05000000	     -1.63115878	     -4.48141068	     -5.95844364	     -1.89398838	      0.85436651	     -0.31424589	    -18.55732914	      3.62893235	     -7.83784636	      4.05847061	     13.20335684	     31.67816789	     -8.26486810	     -6.89786822	    -19.61941963	     11.51080484	     -6.73377452	      4.89881589	      8.47886453
      0.06000000	     -1.39273903	     -4.63053697	     -6.78381978	     -1.88026870	      0.85255478	     -0.31302711	    -19.63462009	      3.44732461	     -7.39545286	      3.80561976	     13.44380644	     31.31327697	     -8.85934881	     -7.67296964	    -18.85603782	     11.20512567	     -7.04052856	      4.48342892	      9.07088106
      0.07000000	     -1.22603454	     -4.75763272	     -7.52048485	     -1.86633883	      0.85086965	     -0.31195576	    -20.57852188	      3.23263668	     -7.02029907	      3.41541506	     13.64788029	     31.04098686	     -9.38488103	     -8.39213359	    -18.64364541	     10.66802539	     -7.20449840	      4.04489887	      9.54015964
      0.08000000	     -1.11238027	     -4.83993851	     -8.16161835	     -1.85220914	      0.84936888	     -0.31107196	    -21.40000364	      2.96124329	     -6.70033975	      2.88389500	     13.79147971	     30.82650889	     -9.79813728	     -8.93955186	    -18.90978182	      9.80120799	     -7.24680748	      3.56551925	      9.92994122
      0.09000000	     -1.05935839	     -4.88633411	     -8.69048618	     -1.83790439	      0.84807739	     -0.31041471	    -22.06541700	      2.65020271	     -6.43712207	      2.16879006	     13.84388661	     30.67227888	    -10.08902511	     -9.23404357	    -19.57233334	      8.53694301	     -7.16424344	      3.06909467	     10.21892737
      0.10000000	     -1.01505613	     -4.90388526	     -9.10942460	     -1.82345701	      0.84708162	     -0.30999599	    -22.60811951	      2.29929064	     -6.20142616	      1.23837863	     13.76712994	     30.52435377	    -10.26075904	     -9.30731478	    -20.56654146	      6.97659088	     -7.03123145	      2.56214398	     10.37626244
      0.11000000	     -0.97217609	     -4.85837165	     -9.44529890	     -1.80886745	      0.84642481	     -0.30980962	    -23.01555828	      1.86435865	     -5.92004601	      0.07992869	     13.54181009	     30.34454802	    -10.28195827	     -9.18113274	    -21.76516367	      5.24424771	     -6.84906312	      2.00903792	     10.46415765
      0.12000000	     -0.92639196	     -4.78037900	     -9.69305084	     -1.79419707	      0.84613435	     -0.30987473	    -23.25598357	      1.38516874	     -5.62757158	     -1.36234918	     13.11170525	     30.12288887	    -10.17307547	     -8.84140564	    -23.07202296	      3.56901341	     -6.64144001	      1.45052227	     10.51747097
      0.13000000	     -0.87887233	     -4.63503465	     -9.88301591	     -1.77947369	      0.84625797	     -0.31016990	    -23.28244724	      0.82467823	     -5.24464782	     -3.14636990	     12.44304754	     29.80805053	     -9.90915915	     -8.35246377	    -24.32914513	      2.20871305	     -6.40506814	      0.84901749	     10.52117318
      0.14000000	     -0.82044555	     -4.43799618	    -10.01688689	     -1.76473180	      0.84680393	     -0.31068388	    -23.08922061	      0.21272781	     -4.76503699	     -5.28469945	     11.52787576	     29.39092689	     -9.52908067	     -7.83461422	    -25.49547592	      1.37519369	     -6.15970681	      0.22806667	     10.46672264
      0.15000000	     -0.73896087	     -4.21662984	    -10.11921352	     -1.75004671	      0.84779900	     -0.31135665	    -22.65783136	     -0.41426973	     -4.19399679	     -7.81285697	     10.35203212	     28.83982394	     -9.08568740	     -7.35135752	    -26.51867587	      1.16348822	     -5.93577124	     -0.39031814	     10.43431090
      0.16000000	     -0.63145738	     -3.97291344	    -10.21211406	     -1.73547320	      0.84924432	     -0.31213470	    -21.96868971	     -1.04253663	     -3.53397808	    -10.74837586	      8.94056567	     28.13374011	     -8.61274988	     -7.00597369	    -27.35059964	      1.53097558	     -5.74370280	     -1.00393069	     10.41807162
      0.17000000	     -0.53037346	     -3.68953011	    -10.37722229	     -1.72108452	      0.85109630	     -0.31289811	    -20.96358346	     -1.68691627	     -2.68272945	    -14.09684363	      7.45893761	     27.27460053	     -8.14493603	     -6.89737009	    -27.93524684	      2.34103056	     -5.54635571	     -1.63247787	     10.51429964
      0.18000000	     -0.40569396	     -3.40324860	    -10.54677914	     -1.70693229	      0.85332713	     -0.31370811	    -19.68604241	     -2.27650644	     -1.79710598	    -17.81998516	      5.95951562	     26.25755465	     -7.69409164	     -7.00395731	    -28.27941584	      3.43598324	     -5.39633034	     -2.23219951	     10.62155714
      0.19000000	     -0.28824815	     -3.10559665	    -10.76154850	     -1.69307277	      0.85585289	     -0.31449938	    -18.10624033	     -2.81023886	     -0.84566539	    -21.87391088	      4.67355345	     25.10990505	     -7.27204515	     -7.34939817	    -28.35873574	      4.61363794	     -5.25943298	     -2.80967608	     10.78370882
      0.20000000	     -0.19360957	     -2.80941235	    -11.00168233	     -1.67952552	      0.85859090	     -0.31529585	    -16.24404027	     -3.25459862	      0.13083345	    -26.17194417	      3.76108211	     23.86597867	     -6.87672451	     -7.88961856	    -28.18169063	      5.72981532	     -5.12282131	     -3.34024143	     10.96446081
      0.21000000	     -0.12759036	     -2.52400574	    -11.25398121	     -1.66627646	      0.86147651	     -0.31609834	    -14.15221065	     -3.58677911	      1.11182981	    -30.59495370	      3.32972918	     22.53912895	     -6.49539373	     -8.54447069	    -27.74526308	      6.69353969	     -4.97783023	     -3.81321576	     11.13840515
      0.22000000	     -0.09107002	     -2.27106975	    -11.48758112	     -1.65332798	      0.86443823	     -0.31693655	    -11.89355617	     -3.77561019	      2.06310553	    -35.02244917	      3.38052526	     21.17089850	     -6.13288226	     -9.24709400	    -27.11278941	      7.45520759	     -4.83367848	     -4.20209243	     11.27710317
      0.23000000	     -0.08349452	     -2.07381258	    -11.67371806	     -1.64063224	      0.86743521	     -0.31783777	     -9.53887492	     -3.79717543	      2.94774874	    -39.32237592	      3.83108792	     19.77378202	     -5.79088585	     -9.91135080	    -26.30647492	      8.03464888	     -4.69152428	     -4.47960561	     11.34125058
      0.24000000	     -0.12754396	     -1.96061767	    -11.79288593	     -1.62816405	      0.87041290	     -0.31883663	     -7.12912044	     -3.60957719	      3.79679299	    -43.37278522	      4.55689224	     18.38495089	     -5.48364064	    -10.43646243	    -25.35208120	      8.45424394	     -4.53538316	     -4.60243382	     11.31437883
      0.25000000	     -0.13953353	     -1.94362114	    -11.81529606	     -1.61587121	      0.87341772	     -0.31990595	     -4.79818849	     -3.24331261	      4.50657609	    -47.08435121	      5.41947666	     16.94075789	     -5.22451687	    -10.86163115	    -24.30430022	      8.73319052	     -4.46056189	     -4.59364350	     11.15768913
      0.26000000	     -0.15051346	     -2.03733643	    -11.73140039	     -1.60373631	      0.87637942	     -0.32105940	     -2.54153420	     -2.68315167	      5.09680626	    -50.39619828	      6.27987766	     15.48784418	     -5.03639237	    -11.15079901	    -23.19597060	      8.91704251	     -4.43537495	     -4.42886282	     10.87330362
      0.27000000	     -0.15865425	     -2.23301858	    -11.54457862	     -1.59172550	      0.87925379	     -0.32226614	     -0.37432259	     -1.95704040	      5.55841979	    -53.27564804	      7.02150227	     14.03417359	     -4.92414969	    -11.31194159	    -22.05155870	      9.03435633	     -4.45516686	     -4.12492047	     10.47300072
      0.28000000	     -0.17126262	     -2.52014102	    -11.24734927	     -1.57982532	      0.88198218	     -0.32351765	      1.70829984	     -1.09179083	      5.88195132	    -55.71237127	      7.60091587	     12.60773235	     -4.89508959	    -11.36838795	    -20.90904351	      9.11637875	     -4.50494533	     -3.70121111	      9.94529584
